<svg width="52" height="52" viewBox="0 0 52 52" fill="none" xmlns="http://www.w3.org/2000/svg">
<rect width="52" height="52" rx="26" fill="#003366"/>
<path d="M15.1019 32L11.4379 20.8H14.1259L17.3099 30.72H15.9659L19.2939 20.8H21.6939L24.8939 30.72H23.5979L26.8619 20.8H29.3419L25.6779 32H22.8939L20.0619 23.296H20.7979L17.8859 32H15.1019ZM36.0239 32.192C35.1599 32.192 34.3546 32.0533 33.6079 31.776C32.8719 31.488 32.2319 31.0827 31.6879 30.56C31.1439 30.0373 30.7173 29.424 30.4079 28.72C30.1093 28.016 29.9599 27.2427 29.9599 26.4C29.9599 25.5573 30.1093 24.784 30.4079 24.08C30.7173 23.376 31.1439 22.7627 31.6879 22.24C32.2426 21.7173 32.8879 21.3173 33.6239 21.04C34.3599 20.752 35.1653 20.608 36.0399 20.608C37.0106 20.608 37.8853 20.7787 38.6639 21.12C39.4533 21.4507 40.1146 21.9413 40.6479 22.592L38.9839 24.128C38.5999 23.6907 38.1733 23.3653 37.7039 23.152C37.2346 22.928 36.7226 22.816 36.1679 22.816C35.6453 22.816 35.1653 22.9013 34.7279 23.072C34.2906 23.2427 33.9119 23.488 33.5919 23.808C33.2719 24.128 33.0213 24.5067 32.8399 24.944C32.6693 25.3813 32.5839 25.8667 32.5839 26.4C32.5839 26.9333 32.6693 27.4187 32.8399 27.856C33.0213 28.2933 33.2719 28.672 33.5919 28.992C33.9119 29.312 34.2906 29.5573 34.7279 29.728C35.1653 29.8987 35.6453 29.984 36.1679 29.984C36.7226 29.984 37.2346 29.8773 37.7039 29.664C38.1733 29.44 38.5999 29.104 38.9839 28.656L40.6479 30.192C40.1146 30.8427 39.4533 31.3387 38.6639 31.68C37.8853 32.0213 37.0053 32.192 36.0239 32.192Z" fill="#F1F1F1"/>
</svg>
