<svg width="32" height="32" viewBox="0 0 32 32" fill="none" xmlns="http://www.w3.org/2000/svg">
<path d="M26.6667 15.3333V9.33329L20.6667 2.66663H6.66671C6.31309 2.66663 5.97395 2.8071 5.7239 3.05715C5.47385 3.3072 5.33337 3.64634 5.33337 3.99996V28C5.33337 28.3536 5.47385 28.6927 5.7239 28.9428C5.97395 29.1928 6.31309 29.3333 6.66671 29.3333H13.3334" stroke="black" stroke-width="2.66667" stroke-linecap="round" stroke-linejoin="round"/>
<path d="M22.6667 24C24.1394 24 25.3333 22.8061 25.3333 21.3333C25.3333 19.8605 24.1394 18.6666 22.6667 18.6666C21.1939 18.6666 20 19.8605 20 21.3333C20 22.8061 21.1939 24 22.6667 24Z" fill="black" stroke="black" stroke-width="2.66667" stroke-linecap="round" stroke-linejoin="round"/>
<path d="M28 29.3333C28 27.9188 27.4381 26.5623 26.4379 25.5621C25.4377 24.5619 24.0812 24 22.6667 24C21.2522 24 19.8957 24.5619 18.8955 25.5621C17.8953 26.5623 17.3334 27.9188 17.3334 29.3333M20 2.66663V9.33329H26.6667" stroke="black" stroke-width="2.66667" stroke-linecap="round" stroke-linejoin="round"/>
</svg>
