<svg width="32" height="32" viewBox="0 0 32 32" fill="none" xmlns="http://www.w3.org/2000/svg">
<path d="M7.99996 4.83667C7.38215 5.26617 6.87753 5.83889 6.52924 6.50586C6.18095 7.17284 5.99935 7.91423 5.99996 8.66667C5.99979 9.47184 6.20795 10.2634 6.6042 10.9643C7.00045 11.6652 7.57132 12.2517 8.26129 12.6667M24 4.83667C24.6178 5.26617 25.1224 5.83889 25.4707 6.50586C25.819 7.17284 26.0006 7.91423 26 8.66667C26.0007 9.41922 25.8191 10.1607 25.4708 10.8278C25.1225 11.4949 24.6179 12.0678 24 12.4973M29.3333 28V27.2C29.3333 24.2133 29.3333 22.72 28.752 21.5787C28.2406 20.5752 27.4248 19.7593 26.4213 19.248M2.66663 28V27.2C2.66663 24.2133 2.66663 22.72 3.24796 21.5787C3.75928 20.5752 4.57514 19.7593 5.57863 19.248M16 13.3333C16.6128 13.3333 17.2196 13.2126 17.7858 12.9781C18.352 12.7436 18.8665 12.3998 19.2998 11.9665C19.7331 11.5332 20.0769 11.0187 20.3114 10.4525C20.5459 9.88634 20.6666 9.2795 20.6666 8.66667C20.6666 8.05383 20.5459 7.447 20.3114 6.88081C20.0769 6.31462 19.7331 5.80018 19.2998 5.36684C18.8665 4.9335 18.352 4.58975 17.7858 4.35523C17.2196 4.12071 16.6128 4 16 4C14.7623 4 13.5753 4.49167 12.7001 5.36684C11.825 6.24201 11.3333 7.42899 11.3333 8.66667C11.3333 9.90434 11.825 11.0913 12.7001 11.9665C13.5753 12.8417 14.7623 13.3333 16 13.3333ZM7.99996 26.6667V28H24V26.6667C24 24.182 24 22.9393 23.594 21.9587C23.0525 20.6519 22.0141 19.6138 20.7073 19.0727C19.728 18.6667 18.4853 18.6667 16 18.6667C13.5146 18.6667 12.2726 18.6667 11.2926 19.0727C10.6455 19.3407 10.0575 19.7336 9.56217 20.2289C9.06687 20.7242 8.67399 21.3122 8.40596 21.9593C7.99996 22.9393 7.99996 24.182 7.99996 26.6667Z" stroke="black" stroke-width="2.66667" stroke-linecap="round" stroke-linejoin="round"/>
</svg>
